<svg width="120" height="57" viewBox="0 0 120 57" fill="none" xmlns="http://www.w3.org/2000/svg">
<path d="M71.3889 41.1109L71.6667 18.0554L11.6667 17.7776L-7.62939e-06 29.1665L11.6667 41.1109H15.8333L19.7222 36.9443L24.7222 39.9998L30.2778 34.7221L36.3889 39.9998L41.6667 35.8332L46.3889 39.9998L51.3889 35.8332L58.0556 41.1109H71.3889Z" fill="#3ED598"/>
<path fill-rule="evenodd" clip-rule="evenodd" d="M63.3333 28.3332C63.3333 12.6851 76.0186 -0.000160217 91.6667 -0.000160217C107.315 -0.000160217 120 12.6851 120 28.3332C120 43.9812 107.315 56.6665 91.6667 56.6665C76.0186 56.6665 63.3333 43.9812 63.3333 28.3332ZM92.7778 28.8887C92.7778 24.5932 96.26 21.111 100.556 21.111C104.851 21.111 108.333 24.5932 108.333 28.8887C108.333 33.1843 104.851 36.6665 100.556 36.6665C96.26 36.6665 92.7778 33.1843 92.7778 28.8887Z" fill="#3ED598"/>
<path d="M11.6668 41.1108L0.000160217 29.1664L63.3335 29.1664C63.5926 33.8884 64.5483 37.0799 66.389 41.1108H58.0557L51.389 35.8331L46.389 39.9997L41.6668 35.8331L36.389 39.9997L30.2779 34.722L24.7224 39.9997L19.7224 36.9442L16.1113 41.1108H11.6668Z" fill="#257D69" fill-opacity="0.4"/>
<path fill-rule="evenodd" clip-rule="evenodd" d="M88.889 28.8884C88.889 22.7519 93.8636 17.7773 100 17.7773C106.137 17.7773 111.111 22.7519 111.111 28.8884C111.111 35.0249 106.137 39.9995 100 39.9995C93.8636 39.9995 88.889 35.0249 88.889 28.8884ZM92.778 28.8883C92.778 24.5928 96.2602 21.1106 100.556 21.1106C104.851 21.1106 108.334 24.5928 108.334 28.8883C108.334 33.1839 104.851 36.6661 100.556 36.6661C96.2602 36.6661 92.778 33.1839 92.778 28.8883Z" fill="#257D69" fill-opacity="0.4"/>
<path d="M92.2222 2.77757C78.1082 2.77757 66.6666 14.2192 66.6666 28.3331C66.6666 42.4471 78.1082 53.8887 92.2222 53.8887C106.336 53.8887 117.778 42.4471 117.778 28.3331C117.778 14.2192 106.336 2.77757 92.2222 2.77757ZM92.2222 51.9237C79.1935 51.9237 68.6316 41.3618 68.6316 28.3331C68.6316 15.3044 79.1935 4.74257 92.2222 4.74257C105.251 4.74257 115.813 15.3044 115.813 28.3331C115.813 41.3618 105.251 51.9237 92.2222 51.9237Z" fill="#257D69" fill-opacity="0.4"/>
</svg>
