<svg width="324" height="318" viewBox="0 0 324 318" fill="none" xmlns="http://www.w3.org/2000/svg">
<path d="M25.0468 138.937C27.2207 149.64 33.3746 174.257 40.5987 187.1C49.6288 203.155 46.1171 208.172 89.2609 247.806C123.776 279.514 161 305 161 305C161 305 200.224 279.514 234.739 247.806C277.883 208.172 276.5 203.5 283.401 187.1L162 141H158.5M298.953 138.937C302.5 123.5 304.973 102.614 306.98 87.7636C308.987 72.9132 311.829 46.7914 313 35.5867C302.632 31.0714 269.355 18.299 240.759 15.5187C223.702 13.8603 205.642 11.0034 173.033 10H150.967C118.358 11.0034 100.298 13.8603 83.2408 15.5187C54.6455 18.299 21.3679 31.0714 11 35.5867C12.1706 46.7914 15.0134 72.9132 17.0201 87.7636L75.5 113.5M248 126C249.5 119 249.083 118.824 250.312 109.713C251.541 100.601 253.283 84.5737 254 77.699C247.649 74.9286 227.264 67.0919 209.747 65.3861C199.298 64.3685 188.234 62.6156 168.259 62H154.741C134.766 62.6156 123.702 64.3685 113.253 65.3861C95.7365 67.0919 75.3512 74.9286 69 77.699C69.7171 84.5737 71.4585 100.601 72.6878 109.713C73.9171 118.824 76.478 134.441 77.6048 141.111C78.9365 147.677 82.7063 162.781 87.1316 170.662C92.6633 180.512 90.5121 183.59 116.941 207.908C138.085 227.363 160.887 243 160.887 243C160.887 243 184.915 227.363 206.059 207.908C232.488 183.59 229 183.5 231.5 177.5" stroke="url(#paint0_linear)" stroke-width="20"/>
<defs>
<linearGradient id="paint0_linear" x1="161.5" y1="62" x2="161.5" y2="243" gradientUnits="userSpaceOnUse">
<stop stop-color="#257D69"/>
<stop offset="1" stop-color="#40DF9F"/>
</linearGradient>
</defs>
</svg>
